<svg xmlns="http://www.w3.org/2000/svg" xmlns:xlink="http://www.w3.org/1999/xlink" version="1.1" x="0px" y="0px" viewBox="0 0 48 60" enable-background="new 0 0 48 48" xml:space="preserve"><g><g><g><path fill="#000000" d="M37.6,42.5c0,2.9,0,3.6-3.3,3.6c-2.6,0-5.2-0.1-7.8-0.1c-5.2-0.1-10.4-0.3-15.5-0.5     c-1.9-0.1-7.9,0.7-8-2.5c-0.1-2.5-0.2-5.1-0.2-7.6c0-5.7,0.1-11.5,0.1-17.2c0-5.1-0.3-10.1-1-15.2C1.7,1,12.5,1.9,14.1,2     c6.3,0.1,9.2,3.6,13.6,7.6c1.8,1.6,3.6,3.3,5.5,4.9c0.9,0.8,1.8,1.6,2.7,2.5c1.6,1.5,1.2,5.9,1.2,8c0,0.8,1.3,0.8,1.3,0     c0-2.1,0.9-6.6-0.9-8.3c-3.7-3.6-7.7-7-11.6-10.5c-2.6-2.4-4.5-4.9-8-5.4C12.4,0.1,6.5,0.6,1,0.6C0.6,0.6,0.4,1,0.4,1.4     c1.2,8.1,1.3,16.3,1.2,24.5c0,3.8-0.1,7.6-0.1,11.5c0,2.7-0.4,6,0.6,8.5c0.7,1.9,10.9,1,12.8,1.1c7.8,0.3,15.5,0.4,23.3,0.4     c0.3,0,0.6-0.3,0.6-0.6c0-1.4,0-2.8,0-4.3C38.9,41.7,37.6,41.7,37.6,42.5L37.6,42.5z"/></g></g><g><g><path fill="#000000" d="M36.4,17.1c-4.5-0.4-9-0.8-13.5-1.1c-1.7-0.1-2.5,0.1-2.5-1.8c0-1.3,0-2.6,0-3.9c0-2.6,0-5.3,0-7.9     c0-0.8-1.2-0.8-1.3,0c0,3.5,0,7,0,10.5c0,0.9-0.5,3.3,0.6,4c1.6,1,5,0.6,6.9,0.7c3.3,0.3,6.5,0.5,9.8,0.8     C37.2,18.4,37.1,17.2,36.4,17.1L36.4,17.1z"/></g></g><g><g><path fill="#000000" d="M8.3,25.3c6-0.2,12-0.1,17.9,0.4c0.8,0.1,0.8-1.2,0-1.3c-6-0.5-11.9-0.6-17.9-0.4     C7.5,24,7.5,25.3,8.3,25.3L8.3,25.3z"/></g></g><g><g><path fill="#000000" d="M8,31.7c5.6,0,11.3,0,16.9,0c0.8,0,0.8-1.3,0-1.3c-5.6,0-11.3,0-16.9,0C7.2,30.5,7.2,31.7,8,31.7L8,31.7z     "/></g></g><g><g><path fill="#000000" d="M8.4,39c5.8,0.6,11.6-0.8,17.4-0.2c0.8,0.1,0.8-1.2,0-1.3c-5.8-0.7-11.6,0.8-17.4,0.2     C7.6,37.6,7.7,38.9,8.4,39L8.4,39z"/></g></g><g><g><path fill="#000000" d="M37.2,26c4.1-0.3,7.5,1.8,8.6,5.9c1.6,6-2,9.4-7.6,10c-5,0.5-7.5-3.3-8.4-7.6c-1.2-5.5,2.9-7.7,7.7-8.1     c0.8-0.1,0.8-1.3,0-1.3c-5.4,0.5-9.3,2.6-9,8.6c0.3,5.7,4.1,9.7,9.8,9.6c5.5-0.1,10-4,9.1-9.7c-0.8-5.4-4.4-9.1-10.2-8.7     C36.4,24.8,36.4,26,37.2,26L37.2,26z"/></g></g><g><g><path fill="#000000" d="M38,29.9c-0.4,2.2-0.5,4.4-0.4,6.7c0,0.8,1.3,0.8,1.3,0c-0.1-2.1,0-4.2,0.4-6.3     C39.4,29.4,38.2,29.1,38,29.9L38,29.9z"/></g></g><g><g><path fill="#000000" d="M34,34.3c2.6-0.1,5.2,0,7.8,0.2c0.8,0.1,0.8-1.2,0-1.3C39.3,33,36.7,33,34,33.1     C33.2,33.1,33.2,34.4,34,34.3L34,34.3z"/></g></g></g></svg>