<?xml version="1.0" encoding="UTF-8" standalone="no"?>
<!DOCTYPE svg PUBLIC "-//W3C//DTD SVG 1.1//EN" "http://www.w3.org/Graphics/SVG/1.1/DTD/svg11.dtd">
<svg width="100%" height="100%" viewBox="0 0 48 60" version="1.1" xmlns="http://www.w3.org/2000/svg" xmlns:xlink="http://www.w3.org/1999/xlink" xml:space="preserve" style="fill-rule:evenodd;clip-rule:evenodd;stroke-linejoin:round;stroke-miterlimit:2;">
    <g transform="matrix(1,0,0,1,4.26579,1.39051)">
        <g>
            <g>
                <path d="M7.2,19.9C11.2,23.2 14.9,26.8 18.4,30.6C18.6,30.8 19.1,30.9 19.3,30.6C24.8,24.1 21.7,26.9 27.9,21.1C30.3,18.9 33.9,17.7 35.8,20.6C37.7,23.3 35.242,26.537 33.3,28.4C30.767,30.83 31.96,29.499 28.893,31.404C25.032,33.802 26.5,33.1 22.8,35.7C21.4,36.7 20,37.7 18.6,38.7C15.5,40.8 14.7,37.3 13.3,35.4C11.4,32.8 9.1,30.5 6.6,28.3C5.8,27.6 4.8,26.9 4,26.2C-0.1,23 6.2,20.4 8.1,19.4C8.8,19.1 8.2,18 7.5,18.3C5.5,19.3 -0.8,22.2 1,25.3C2.1,27.3 5.3,28.7 7,30.1C10.2,32.9 12.7,36.3 15,39.9C17.1,43.3 21.7,38.1 23.6,36.7C29.2,32.7 30.7,32.5 35.8,27.8C37.3,26.4 39.6,25.7 38.5,23.2C37.8,21.6 34.5,14.4 31.4,16.6C26.237,20.264 28.324,18.799 24.6,22.7C22.5,24.9 20.1,30.2 17.1,27C14.4,24.1 11.3,21.4 8.2,18.8C7.5,18.5 6.6,19.4 7.2,19.9Z" style="fill-rule:nonzero;"/>
            </g>
        </g>
    </g>
</svg>
